<svg width="150" height="150" viewBox="0 0 150 150" fill="none" xmlns="http://www.w3.org/2000/svg">
<path d="M134.355 63.2227C133.594 59.4727 132.363 55.7812 130.84 52.207C129.316 48.75 127.441 45.4102 125.273 42.2461C123.105 39.1406 120.645 36.2109 117.891 33.5742C114.668 30.4102 109.395 30.4102 106.113 33.5742C102.891 36.6797 102.891 41.7773 106.113 44.9414C108.105 46.875 109.922 48.9844 111.504 51.2109C113.086 53.4961 114.434 55.8984 115.547 58.418C116.66 60.9961 117.539 63.6328 118.125 66.3867C118.711 69.1992 119.004 72.0703 119.004 74.9414C119.004 77.8125 118.711 80.6836 118.125 83.4961C117.539 86.25 116.66 88.8867 115.547 91.4648C114.434 93.9844 113.086 96.3867 111.504 98.6719C109.922 100.898 108.105 103.008 106.113 104.941C104.121 106.875 101.953 108.633 99.6094 110.098C97.2656 111.621 94.7461 112.969 92.168 114.023C91.875 114.141 91.582 114.258 91.2891 114.375L93.2227 111.094C95.5078 107.227 94.1602 102.305 90.1758 100.137C86.1914 97.9102 81.0937 99.2578 78.8086 103.066L68.1445 120.937C67.3242 122.168 66.7969 123.633 66.7383 125.156C66.7383 125.215 66.7383 125.215 66.7383 125.273C66.7383 125.332 66.7383 125.391 66.7383 125.449V125.508C66.7383 125.625 66.7383 125.684 66.7383 125.801V125.859C66.7383 126.445 66.8555 126.973 67.0312 127.559C67.6172 129.609 68.9648 131.367 70.8984 132.422L89.8828 143.027C91.1719 143.789 92.6367 144.082 94.043 144.082C96.9141 144.082 99.7266 142.617 101.25 140.039C103.535 136.172 102.188 131.25 98.2031 129.082L98.1445 129.023C98.3203 128.965 98.4961 128.906 98.6133 128.848C102.188 127.383 105.645 125.566 108.926 123.457C112.148 121.348 115.137 118.945 117.891 116.309C120.645 113.672 123.105 110.742 125.273 107.637C127.441 104.531 129.316 101.133 130.84 97.6758C132.363 94.1602 133.594 90.4687 134.355 86.6602C135.176 82.793 135.586 78.8672 135.586 74.8828C135.527 71.0742 135.117 67.0898 134.355 63.2227Z" fill="white"/>
<path d="M71.25 46.875L81.9726 28.9453C82.6758 27.9492 83.1445 26.7773 83.2617 25.4883C83.2617 25.3711 83.2617 25.3125 83.2617 25.1953C83.2617 25.1367 83.2617 25.0781 83.2617 25.0195C83.2617 24.9609 83.2617 24.9023 83.2617 24.8438C83.2617 24.7852 83.2617 24.668 83.2617 24.5508C83.2617 24.5508 83.2617 24.5508 83.2617 24.4922C83.2617 24.4336 83.2617 24.4922 83.2617 24.4336C83.2617 24.3164 83.2617 24.1992 83.2617 24.082C83.1445 21.4453 81.6797 18.9258 79.1016 17.5195L60.0586 6.91406C56.0742 4.6875 50.9766 6.03516 48.6914 9.84375C46.4062 13.7109 47.7539 18.6328 51.7383 20.8008L51.7969 20.8594C51.6211 20.918 51.4453 20.9766 51.3281 21.0352C47.7539 22.5 44.2969 24.3164 41.0156 26.4258C37.8516 28.5352 34.8047 30.9375 32.0508 33.5742C29.2969 36.2109 26.8359 39.1406 24.668 42.2461C22.5 45.3516 20.625 48.6914 19.1016 52.207C17.5781 55.7227 16.3477 59.4727 15.5859 63.2227C14.7656 67.0898 14.3555 71.0156 14.3555 75C14.3555 78.9844 14.7656 82.9102 15.5859 86.7773C16.4063 90.5273 17.5781 94.2187 19.1016 97.793C20.625 101.25 22.5 104.59 24.668 107.754C26.8359 110.859 29.2969 113.789 32.0508 116.426C33.6914 118.008 35.8008 118.77 37.9102 118.77C40.0195 118.77 42.1875 118.008 43.7695 116.426C46.9922 113.262 46.9922 108.223 43.7695 105.059C41.7773 103.125 39.9609 101.016 38.3789 98.7891C36.7969 96.5039 35.4492 94.1016 34.3359 91.582C33.2227 89.0039 32.3437 86.3672 31.7578 83.6133C31.1719 80.8008 30.8789 77.9297 30.8789 75.0586C30.8789 72.1875 31.1719 69.3164 31.7578 66.5039C32.3437 63.8086 33.2227 61.1133 34.3359 58.5352C35.4492 56.0156 36.7969 53.6133 38.3789 51.3281C39.9609 49.043 41.7773 46.9922 43.7695 45.0586C45.7617 43.125 47.9883 41.3672 50.2734 39.8437C52.6172 38.3203 55.1367 36.9727 57.7148 35.918C58.0078 35.8008 58.3008 35.6836 58.5937 35.5664L56.8359 38.8477C54.5508 42.7148 55.8984 47.6367 59.8828 49.8047C61.1719 50.5664 62.6367 50.918 64.043 50.918C66.9141 50.918 69.7266 49.4531 71.25 46.875Z" fill="white"/>
</svg>
